HIERARCHY
ROOT SpineBase
{
  OFFSET 0.000000 0.000000 0.000000
  CHANNELS 6 Xposition Yposition Zposition Zrotation Xrotation Yrotation
  JOINT SpineMid
  {
    OFFSET 0.000000 25.888097 0.000000
    CHANNELS 3 Zrotation Xrotation Yrotation
    JOINT SpineShoulder
    {
      OFFSET 0.047733 19.315608 -0.652399
      CHANNELS 3 Zrotation Xrotation Yrotation
      JOINT Neck
      {
        OFFSET 0.046843 6.416196 -0.497159
        CHANNELS 3 Zrotation Xrotation Yrotation
        JOINT Head
        {
          OFFSET -1.620471 14.946736 -2.183471
          CHANNELS 3 Zrotation Xrotation Yrotation
          End Site
          {
            OFFSET 0 0 0
          }
        }
      }
      JOINT ShoulderLeft
      {
        OFFSET -16.988532 -2.927044 1.443214
        CHANNELS 3 Zrotation Xrotation Yrotation
        JOINT ElbowLeft
        {
          OFFSET -5.929916 -21.754786 2.774938
          CHANNELS 3 Zrotation Xrotation Yrotation
          JOINT WristLeft
          {
            OFFSET 4.881516 -16.889691 -19.475336
            CHANNELS 3 Zrotation Xrotation Yrotation
            JOINT HandLeft
            {
              OFFSET 1.778014 -5.511111 -8.398123
              CHANNELS 3 Zrotation Xrotation Yrotation
              JOINT HandTipLeft
              {
                OFFSET 2.253959 -5.969726 -3.756262
                CHANNELS 3 Zrotation Xrotation Yrotation
                End Site
                {
                  OFFSET 0 0 0
                }
              }
              JOINT ThumbLeft
              {
                OFFSET 3.542933 3.718999 -1.284129
                CHANNELS 3 Zrotation Xrotation Yrotation
                End Site
                {
                  OFFSET 0 0 0
                }
              }
            }
          }
        }
      }
      JOINT ShoulderRight
      {
        OFFSET 16.369700 -2.130970 -1.848486
        CHANNELS 3 Zrotation Xrotation Yrotation
        JOINT ElbowRight
        {
          OFFSET 10.968364 -20.753557 -0.584178
          CHANNELS 3 Zrotation Xrotation Yrotation
          JOINT WristRight
          {
            OFFSET -9.033647 -18.646932 -14.985741
            CHANNELS 3 Zrotation Xrotation Yrotation
            JOINT HandRight
            {
              OFFSET -2.297113 -3.861203 -5.686022
              CHANNELS 3 Zrotation Xrotation Yrotation
              JOINT HandTipRight
              {
                OFFSET -0.749582 -4.473060 -4.833665
                CHANNELS 3 Zrotation Xrotation Yrotation
                End Site
                {
                  OFFSET 0 0 0
                }
              }
              JOINT ThumbRight
              {
                OFFSET -1.251629 1.497486 -2.284501
                CHANNELS 3 Zrotation Xrotation Yrotation
                End Site
                {
                  OFFSET 0 0 0
                }
              }
            }
          }
        }
      }
    }
  }
  JOINT HipLeft
  {
    OFFSET -7.957926 0.765711 -2.176190
    CHANNELS 3 Zrotation Xrotation Yrotation
    JOINT KneeLeft
    {
      OFFSET -2.645610 -38.518630 -3.767322
      CHANNELS 3 Zrotation Xrotation Yrotation
      JOINT AnkleLeft
      {
        OFFSET -2.089833 -33.406860 0.850397
        CHANNELS 3 Zrotation Xrotation Yrotation
        JOINT FootLeft
        {
          OFFSET 0.556831 -7.550362 -6.511428
          CHANNELS 3 Zrotation Xrotation Yrotation
          End Site
          {
            OFFSET 0 0 0
          }
        }
      }
    }
  }
  JOINT HipRight
  {
    OFFSET 8.365480 0.644562 -3.994184
    CHANNELS 3 Zrotation Xrotation Yrotation
    JOINT KneeRight
    {
      OFFSET 3.062005 -36.111009 3.344770
      CHANNELS 3 Zrotation Xrotation Yrotation
      JOINT AnkleRight
      {
        OFFSET -2.954550 -36.082743 12.014647
        CHANNELS 3 Zrotation Xrotation Yrotation
        JOINT FootRight
        {
          OFFSET -0.480525 -2.531476 -10.683017
          CHANNELS 3 Zrotation Xrotation Yrotation
          End Site
          {
            OFFSET 0 0 0
          }
        }
      }
    }
  }
}
MOTION
Frames: 6
Frame Time: 0.033333
-27.763105 79.418214 370.560779 3.651394 -8.529844 29.265931 -0.616450 -0.030985 -28.817757 -0.179585 -0.333916 0.188046 13.200003 12.335138 -0.417655 0.000000 0.000000 0.000000 -100.717431 -9.432342 -9.070861 106.729729 45.740750 -7.770161 0.739591 -6.778236 -2.331401 24.874544 -4.247306 -6.519437 0.000000 0.000000 0.000000 0.000000 0.000000 0.000000 -159.454140 71.885614 -146.224649 -6.186777 -37.154660 -82.549421 87.642224 7.613220 -69.569094 -165.232839 -30.618152 -50.712429 0.000000 0.000000 0.000000 0.000000 0.000000 0.000000 3.188658 23.201018 -30.110061 4.868214 -16.837476 1.151036 -3.660498 17.027831 4.524140 0.000000 0.000000 0.000000 10.541329 9.293651 -29.455772 -8.336069 -9.240498 -1.104443 0.148893 3.651851 -0.974066 0.000000 0.000000 0.000000
-28.477734 78.549513 370.118849 3.516404 -10.424484 30.774661 0.018130 -0.029728 -30.311758 0.124584 -0.420867 0.217112 7.906191 16.014248 -0.503560 0.000000 0.000000 0.000000 -110.471386 -21.880665 -18.651824 122.287738 47.600512 -22.850684 -6.070161 -13.252227 1.632361 34.730859 -4.388162 -18.700204 0.000000 0.000000 0.000000 0.000000 0.000000 0.000000 172.147908 64.686441 -108.448064 -12.085127 -19.631531 -95.840248 55.282833 41.489284 -55.203446 132.481644 -64.236176 -159.166971 0.000000 0.000000 0.000000 0.000000 0.000000 0.000000 4.947643 26.575978 -31.947354 4.541890 -16.763683 0.847060 -2.881832 9.936992 4.646822 0.000000 0.000000 0.000000 13.442860 10.433915 -31.381128 -9.363717 -10.265666 -1.205990 -0.367305 3.979894 -0.355883 0.000000 0.000000 0.000000
-29.645266 77.568306 369.060958 2.656694 -11.347034 30.451196 0.460101 0.226865 -30.100905 0.349485 -0.234906 0.180705 3.436049 16.410422 -0.092847 0.000000 0.000000 0.000000 -116.670662 -31.356163 -29.062153 131.485140 46.026611 -36.132766 0.510340 -7.336204 -1.430731 31.844184 -4.555663 -15.102340 0.000000 0.000000 0.000000 0.000000 0.000000 0.000000 155.542745 56.629991 -83.011336 -15.180028 -2.800437 -106.869459 -76.083820 48.504671 20.343711 136.480398 -33.359669 105.769712 0.000000 0.000000 0.000000 0.000000 0.000000 0.000000 5.166456 27.918633 -31.430107 4.614082 -15.048526 0.502079 -3.884096 10.627409 6.720511 0.000000 0.000000 0.000000 15.980242 10.423884 -31.372803 -10.245529 -11.074006 -1.174003 -1.019595 1.898026 0.650307 0.000000 0.000000 0.000000
-30.562065 76.461614 367.695118 2.231050 -11.612274 29.230477 0.216362 0.314604 -28.911877 -0.154501 0.032878 0.153384 1.144722 15.887574 0.172034 0.000000 0.000000 0.000000 -119.031671 -39.871439 -38.735670 131.730902 39.701911 -49.621242 5.493254 -3.272382 -5.506929 27.520725 6.726757 -10.561607 0.000000 0.000000 0.000000 0.000000 0.000000 0.000000 145.998300 52.442350 -69.367021 -12.738934 12.677528 -113.146769 -144.641560 -16.718162 -22.649517 168.392507 -22.771333 4.661278 0.000000 0.000000 0.000000 0.000000 0.000000 0.000000 3.322821 28.800522 -29.384175 5.298579 -12.803756 0.198245 -5.732040 15.390742 9.687285 0.000000 0.000000 0.000000 17.000852 10.226690 -30.273271 -10.483204 -11.929665 -0.873523 -2.082597 2.643518 2.418840 0.000000 0.000000 0.000000
-32.361882 74.941550 365.911671 2.853710 -9.546187 24.717619 0.583970 0.019312 -24.393346 -0.451050 -0.129876 0.196194 -2.809205 12.022748 0.223626 0.000000 0.000000 0.000000 -127.082958 -41.388166 -47.205452 131.025229 35.967454 -53.483593 8.421890 -1.000530 -8.570275 25.671776 17.891817 -8.119361 0.000000 0.000000 0.000000 0.000000 0.000000 0.000000 141.131792 47.904732 -60.156333 -14.297682 22.075077 -119.347145 -96.232060 -8.763432 -2.091277 122.830108 17.002641 11.944507 0.000000 0.000000 0.000000 0.000000 0.000000 0.000000 -1.887676 27.199852 -23.571692 6.037904 -10.766149 0.085210 -6.746052 17.089449 10.899704 0.000000 0.000000 0.000000 16.351009 10.378023 -25.449319 -10.650166 -14.564512 -0.465442 -3.939688 4.545957 5.055908 0.000000 0.000000 0.000000
-34.844760 74.444323 363.653031 3.136071 -9.487800 24.399114 1.145110 -0.096658 -24.073973 -0.817965 -0.080932 0.230884 0.578404 7.108788 -0.272380 0.000000 0.000000 0.000000 -124.916675 -44.115186 -48.098266 129.641535 32.151670 -62.098904 6.622082 3.154049 -6.784690 20.566068 27.929144 -2.458310 0.000000 0.000000 0.000000 0.000000 0.000000 0.000000 139.886849 45.291668 -57.037324 -20.793429 22.367961 -117.713620 -56.929365 16.282652 8.984068 69.130375 11.005820 31.115173 0.000000 0.000000 0.000000 0.000000 0.000000 0.000000 -2.888654 26.130115 -22.940885 6.552015 -9.248975 0.086899 -7.779337 18.986910 11.463479 0.000000 0.000000 0.000000 17.564640 9.689438 -25.113995 -10.404015 -16.018862 0.510026 -5.892641 6.042762 4.668092 0.000000 0.000000 0.000000
